<svg width="154" height="154" viewBox="0 0 154 154" fill="none" xmlns="http://www.w3.org/2000/svg">
<rect width="154" height="154" rx="77" fill="#04662D"/>
<path d="M77.0102 100.827V63.4649C65.0777 68.3494 51.8226 73.5897 43.5102 76.8272C42.6768 76.9938 41.0102 78.0272 41.0102 80.8272V100.827C40.6768 114.161 48.4102 140.827 82.0102 140.827H110.01C110.844 140.827 112.51 140.127 112.51 137.327V107.827C112.51 106.661 111.81 104.327 109.01 104.327H80.5102C79.3435 104.494 77.0102 104.027 77.0102 100.827Z" fill="white"/>
<path d="M79.0102 26.3272C77.4102 26.7272 77.0102 28.1605 77.0102 28.8272V63.4649C87.8065 59.0454 97.5201 54.9172 101.51 52.8272C109.91 48.4272 112.344 40.9938 112.51 37.8272V16.3272C112.51 13.5272 109.51 13.8272 108.01 14.3272C99.0102 18.1605 80.6102 25.9272 79.0102 26.3272Z" fill="#7EDD1F"/>
</svg>
