<svg width="1335" height="307" viewBox="0 0 1335 307" fill="none" xmlns="http://www.w3.org/2000/svg">
<g clip-path="url(#clip0_1_11)">
<path d="M77.4352 181.56V117.634C57.0778 125.991 34.4639 134.957 20.2825 140.497C18.8608 140.782 16.0174 142.55 16.0174 147.341V181.56C15.4487 204.374 28.6421 250 85.9654 250H133.735C135.157 250 138 248.802 138 244.012V193.537C138 191.541 136.806 187.549 132.029 187.549H83.4064C81.416 187.834 77.4352 187.036 77.4352 181.56Z" fill="#04662D"/>
<path d="M80.8473 54.0917C78.1176 54.7761 77.4352 57.2285 77.4352 58.3691V117.634C95.8543 110.072 112.426 103.009 119.233 99.4329C133.564 91.9045 137.716 79.1862 138 73.7681V36.9818C138 32.191 132.882 32.7043 130.323 33.5598C114.968 40.1186 83.577 53.4073 80.8473 54.0917Z" fill="#7EDD1F"/>
<path d="M254.461 229C249.904 229 247.625 226.559 247.625 221.676V96.2852C247.625 91.4023 249.904 88.9609 254.461 88.9609H270.281C274.188 88.9609 276.141 91.4023 276.141 96.2852V204.781H333.074C337.957 204.781 340.398 206.897 340.398 211.129V222.652C340.398 226.884 337.957 229 333.074 229H254.461ZM353.875 158.98C353.875 136.52 359.669 118.681 371.258 105.465C382.846 92.2487 399.383 85.6406 420.867 85.6406C442.352 85.6406 458.888 92.2487 470.477 105.465C482.065 118.681 487.859 136.52 487.859 158.98C487.859 181.441 482.065 199.28 470.477 212.496C458.888 225.712 442.352 232.32 420.867 232.32C399.383 232.32 382.846 225.712 371.258 212.496C359.669 199.28 353.875 181.441 353.875 158.98ZM384.344 158.98C384.344 175.257 387.241 187.724 393.035 196.383C398.895 204.977 408.172 209.273 420.867 209.273C433.562 209.273 442.807 204.977 448.602 196.383C454.461 187.724 457.391 175.257 457.391 158.98C457.391 142.704 454.461 130.27 448.602 121.676C442.807 113.017 433.562 108.688 420.867 108.688C408.172 108.688 398.895 113.017 393.035 121.676C387.241 130.27 384.344 142.704 384.344 158.98ZM504.656 158.98C504.656 136.52 510.353 118.681 521.746 105.465C533.139 92.2487 549.578 85.6406 571.062 85.6406C583.432 85.6406 593.914 87.5612 602.508 91.4023C611.102 95.2435 617.156 100.81 620.672 108.102C623.016 112.919 622.625 116.174 619.5 117.867L607.781 124.117C603.68 126.331 600.294 125.094 597.625 120.406C595.932 117.411 592.775 114.71 588.152 112.301C583.595 109.892 578.224 108.688 572.039 108.688C558.367 108.688 548.797 113.017 543.328 121.676C537.859 130.27 535.125 142.704 535.125 158.98C535.125 175.257 537.859 187.724 543.328 196.383C548.797 204.977 558.367 209.273 572.039 209.273C579.396 209.273 585.581 207.613 590.594 204.293C595.672 200.973 599.188 197.815 601.141 194.82C604.331 189.938 607.716 188.701 611.297 191.109L623.016 198.922C626.206 201.07 626.531 204.326 623.992 208.688C620.216 215.198 613.738 220.764 604.559 225.387C595.379 230.009 584.214 232.32 571.062 232.32C549.904 232.32 533.53 225.712 521.941 212.496C510.418 199.28 504.656 181.441 504.656 158.98ZM645.965 229C641.277 229 639.747 226.852 641.375 222.555L689.227 96.8711C691.245 91.5977 694.305 88.9609 698.406 88.9609H712.078C716.18 88.9609 719.24 91.5977 721.258 96.8711L769.109 222.555C770.737 226.852 769.207 229 764.52 229H748.992C744.695 229 741.701 226.754 740.008 222.262L730.047 195.992H680.438L670.477 222.262C668.784 226.754 665.789 229 661.492 229H645.965ZM689.52 171.773H720.965L708.953 140.719C707.521 137.073 706.642 134.436 706.316 132.809C706.056 131.116 705.763 128.642 705.438 125.387H705.047C704.721 128.642 704.396 131.116 704.07 132.809C703.81 134.436 702.964 137.073 701.531 140.719L689.52 171.773Z" fill="#04662D"/>
<path d="M793.328 229C788.771 229 786.492 226.559 786.492 221.676V96.2852C786.492 91.4023 788.771 88.9609 793.328 88.9609H809.148C813.055 88.9609 815.008 91.4023 815.008 96.2852V204.781H871.941C876.824 204.781 879.266 206.897 879.266 211.129V222.652C879.266 226.884 876.824 229 871.941 229H793.328ZM906.805 229C902.247 229 899.969 226.559 899.969 221.676V96.2852C899.969 91.4023 902.247 88.9609 906.805 88.9609H921.648C926.206 88.9609 928.484 91.4023 928.484 96.2852V221.676C928.484 226.559 926.206 229 921.648 229H906.805ZM961.395 218.551C957.358 215.491 956.382 212.398 958.465 209.273L965.984 197.945C968.458 194.234 972.072 194.039 976.824 197.359C980.47 199.898 985.223 202.535 991.082 205.27C997.007 207.939 1003.22 209.273 1009.73 209.273C1014.29 209.273 1018.69 208.753 1022.92 207.711C1027.15 206.669 1030.37 204.651 1032.59 201.656C1034.8 198.661 1035.91 195.113 1035.91 191.012C1035.91 188.082 1035.42 185.51 1034.44 183.297C1033.46 181.083 1031.87 179.26 1029.66 177.828C1027.44 176.396 1025.16 175.191 1022.82 174.215C1018.72 172.522 1013.54 170.862 1007.29 169.234C1001.11 167.542 994.988 165.523 988.934 163.18C983.53 161.096 978.582 158.232 974.09 154.586C969.598 150.94 966.115 146.839 963.641 142.281C961.167 137.724 959.93 131.637 959.93 124.02C959.93 114.97 962.859 107.223 968.719 100.777C974.578 94.332 981.316 90.1979 988.934 88.375C996.551 86.5521 1004.23 85.6406 1011.98 85.6406C1019.66 85.6406 1027.57 86.8125 1035.71 89.1562C1043.91 91.5 1050.1 94.4297 1054.27 97.9453C1058.37 101.396 1059.38 104.521 1057.29 107.32L1049.38 117.965C1046.71 121.611 1043.13 121.904 1038.64 118.844C1035.78 116.891 1031.84 114.71 1026.82 112.301C1021.88 109.892 1016.7 108.688 1011.3 108.688C1007.46 108.688 1003.91 109.013 1000.65 109.664C997.462 110.315 994.63 111.878 992.156 114.352C989.682 116.826 988.445 119.885 988.445 123.531C988.445 127.047 989.357 129.911 991.18 132.125C993.003 134.273 995.021 135.901 997.234 137.008C999.448 138.049 1001.69 138.928 1003.97 139.645C1011 141.923 1017.29 143.941 1022.82 145.699C1028.35 147.392 1033.46 149.28 1038.15 151.363C1044.66 154.293 1049.64 157.223 1053.09 160.152C1056.54 163.082 1059.38 167.086 1061.59 172.164C1063.87 177.242 1065.01 183.297 1065.01 190.328C1065.01 200.745 1061.69 209.371 1055.05 216.207C1048.41 222.978 1041.02 227.34 1032.88 229.293C1024.81 231.311 1016.93 232.32 1009.25 232.32C997.918 232.32 988.706 231.214 981.609 229C974.513 226.852 967.775 223.368 961.395 218.551ZM1082.49 113.961C1077.61 113.961 1075.16 111.845 1075.16 107.613V95.3086C1075.16 91.0768 1077.61 88.9609 1082.49 88.9609H1182.88C1187.76 88.9609 1190.2 91.0768 1190.2 95.3086V107.613C1190.2 111.845 1187.76 113.961 1182.88 113.961H1146.94V223.629C1146.94 227.21 1145.31 229 1142.06 229H1123.31C1120.05 229 1118.43 227.21 1118.43 223.629V113.961H1082.49ZM1187.76 229C1183.07 229 1181.54 226.852 1183.17 222.555L1231.02 96.8711C1233.04 91.5977 1236.1 88.9609 1240.2 88.9609H1253.88C1257.98 88.9609 1261.04 91.5977 1263.05 96.8711L1310.91 222.555C1312.53 226.852 1311 229 1306.32 229H1290.79C1286.49 229 1283.5 226.754 1281.8 222.262L1271.84 195.992H1222.23L1212.27 222.262C1210.58 226.754 1207.59 229 1203.29 229H1187.76ZM1231.32 171.773H1262.76L1250.75 140.719C1249.32 137.073 1248.44 134.436 1248.11 132.809C1247.85 131.116 1247.56 128.642 1247.23 125.387H1246.84C1246.52 128.642 1246.19 131.116 1245.87 132.809C1245.61 134.436 1244.76 137.073 1243.33 140.719L1231.32 171.773Z" fill="#7EDD1F"/>
</g>
<defs>
<clipPath id="clip0_1_11">
<rect width="1335" height="307" fill="white"/>
</clipPath>
</defs>
</svg>
